<svg version="1.0" xmlns="http://www.w3.org/2000/svg" xmlns:xlink="http://www.w3.org/1999/xlink" width="30" height="30"><circle cx="15" cy="15" r="15" fill="#fff"/><defs><path id="a" d="M25.1 13.1h-9.9v4.1h5.7c-.5 2.6-2.8 4.1-5.7 4.1-3.4 0-6.2-2.8-6.2-6.3s2.8-6.3 6.3-6.3c1.5 0 2.9.5 3.9 1.4l3-3.1c-1.9-1.6-4.3-2.7-7-2.7C9.3 4.4 4.6 9.1 4.6 15s4.7 10.6 10.6 10.6c5.3 0 10.1-3.9 10.1-10.6.1-.6 0-1.3-.2-1.9z"/></defs><clipPath id="b"><use xlink:href="#a" overflow="visible"/></clipPath><path d="M3.6 21.3V8.7l8.2 6.3-8.2 6.3z" clip-path="url(#b)" fill="#fbbc05"/><defs><path id="c" d="M25.1 13.1h-9.9v4.1h5.7c-.5 2.6-2.8 4.1-5.7 4.1-3.4 0-6.2-2.8-6.2-6.3s2.8-6.3 6.3-6.3c1.5 0 2.9.5 3.9 1.4l3-3.1c-1.9-1.6-4.3-2.7-7-2.7C9.3 4.4 4.6 9.1 4.6 15s4.7 10.6 10.6 10.6c5.3 0 10.1-3.9 10.1-10.6.1-.6 0-1.3-.2-1.9z"/></defs><clipPath id="d"><use xlink:href="#c" overflow="visible"/></clipPath><path d="M3.6 8.7l8.2 6.3 3.4-2.9 11.6-1.9V3.4H3.6v5.3z" clip-path="url(#d)" fill="#ea4335"/><g><defs><path id="e" d="M25.1 13.1h-9.9v4.1h5.7c-.5 2.6-2.8 4.1-5.7 4.1-3.4 0-6.2-2.8-6.2-6.3s2.8-6.3 6.3-6.3c1.5 0 2.9.5 3.9 1.4l3-3.1c-1.9-1.6-4.3-2.7-7-2.7C9.3 4.4 4.6 9.1 4.6 15s4.7 10.6 10.6 10.6c5.3 0 10.1-3.9 10.1-10.6.1-.6 0-1.3-.2-1.9z"/></defs><clipPath id="f"><use xlink:href="#e" overflow="visible"/></clipPath><path d="M3.6 21.3l14.5-11.1 3.8.5 4.9-7.2v23.2H3.6v-5.4z" clip-path="url(#f)" fill="#34a853"/></g><g><defs><path id="g" d="M25.1 13.1h-9.9v4.1h5.7c-.5 2.6-2.8 4.1-5.7 4.1-3.4 0-6.2-2.8-6.2-6.3s2.8-6.3 6.3-6.3c1.5 0 2.9.5 3.9 1.4l3-3.1c-1.9-1.6-4.3-2.7-7-2.7C9.3 4.4 4.6 9.1 4.6 15s4.7 10.6 10.6 10.6c5.3 0 10.1-3.9 10.1-10.6.1-.6 0-1.3-.2-1.9z"/></defs><clipPath id="h"><use xlink:href="#g" overflow="visible"/></clipPath><path d="M26.8 26.6L11.9 15 10 13.6l16.9-4.8v17.8z" clip-path="url(#h)" fill="#4285f4"/></g></svg>